<svg width="1876" height="329" viewBox="0 0 1876 329" fill="none" xmlns="http://www.w3.org/2000/svg">
<path d="M212.32 215.9C212.32 258.209 180.111 288.477 137.416 288.477H0V20.6846H127.303C167.274 20.6846 197.939 49.4093 197.939 88.9947C197.939 113.826 185.126 136.005 167.672 146.046C194.082 154.966 212.32 183.691 212.32 215.9ZM52.001 68.8404V127.833H113.706C121.529 127.833 129.031 124.725 134.563 119.194C140.094 113.662 143.202 106.159 143.202 98.3366C143.202 90.5137 140.094 83.0113 134.563 77.4796C129.031 71.948 121.529 68.8404 113.706 68.8404H52.001ZM157.558 206.618C157.592 202.225 156.752 197.87 155.086 193.805C153.421 189.74 150.963 186.047 147.857 182.941C144.751 179.835 141.058 177.378 136.993 175.712C132.929 174.047 128.573 173.207 124.181 173.24H52.001V240.381H124.181C128.607 240.408 132.995 239.549 137.085 237.856C141.176 236.162 144.886 233.668 147.999 230.521C151.112 227.373 153.565 223.635 155.212 219.526C156.86 215.417 157.67 211.02 157.594 206.594L157.558 206.618Z" fill="#F0A321"/>
<path d="M330.907 290.817C309.325 290.817 289.487 285.803 271.393 275.775C253.518 265.748 239.239 251.796 228.557 233.92C218.093 215.826 212.861 195.552 212.861 173.099C212.861 150.645 218.093 130.48 228.557 112.605C239.239 94.7288 253.518 80.777 271.393 70.7491C289.487 60.7212 309.325 55.7073 330.907 55.7073C352.488 55.7073 372.217 60.7212 390.093 70.7491C408.187 80.777 422.357 94.7288 432.602 112.605C443.066 130.48 448.298 150.645 448.298 173.099C448.298 195.552 443.066 215.826 432.602 233.92C422.139 251.796 407.969 265.748 390.093 275.775C372.217 285.803 352.488 290.817 330.907 290.817ZM330.907 239.806C349.218 239.806 363.824 233.702 374.724 221.494C385.842 209.286 391.401 193.155 391.401 173.099C391.401 152.825 385.842 136.693 374.724 124.703C363.824 112.496 349.218 106.392 330.907 106.392C312.377 106.392 297.553 112.387 286.435 124.376C275.535 136.366 270.085 152.607 270.085 173.099C270.085 193.373 275.535 209.613 286.435 221.821C297.553 233.811 312.377 239.806 330.907 239.806Z" fill="#F0A321"/>
<path d="M951.147 180.2C954.347 175 958.947 170.8 964.947 167.6C970.947 164.4 977.814 162.8 985.547 162.8C994.747 162.8 1003.08 165.133 1010.55 169.8C1018.01 174.467 1023.88 181.133 1028.15 189.8C1032.55 198.467 1034.75 208.533 1034.75 220C1034.75 231.467 1032.55 241.6 1028.15 250.4C1023.88 259.067 1018.01 265.8 1010.55 270.6C1003.08 275.267 994.747 277.6 985.547 277.6C977.68 277.6 970.814 276.067 964.947 273C959.08 269.8 954.48 265.6 951.147 260.4V276H916.947V128H951.147V180.2ZM999.947 220C999.947 211.467 997.547 204.8 992.747 200C988.08 195.067 982.28 192.6 975.347 192.6C968.547 192.6 962.747 195.067 957.947 200C953.28 204.933 950.947 211.667 950.947 220.2C950.947 228.733 953.28 235.467 957.947 240.4C962.747 245.333 968.547 247.8 975.347 247.8C982.147 247.8 987.947 245.333 992.747 240.4C997.547 235.333 999.947 228.533 999.947 220ZM1159.69 164.4L1089.69 329H1052.89L1078.49 272.2L1033.09 164.4H1071.29L1097.09 234.2L1122.69 164.4H1159.69ZM1410.75 229.45H1312.39L1296.63 276H1229.43L1324.78 12.4647H1399.11L1494.47 276H1426.52L1410.75 229.45ZM1394.23 179.896L1361.57 83.4165L1329.29 179.896H1394.23ZM1574.54 226.446H1658.63V276H1510.35V12.4647H1574.54V226.446ZM1865.69 12.4647V63.8954H1795.87V276H1731.67V63.8954H1661.85V12.4647H1865.69Z" fill="black"/>
<path d="M607.362 256.702V305.605H592.62C562.738 305.605 536.34 296.287 514.607 279.99C499.6 290.799 483.134 299.423 465.703 305.605L446.309 265.212C458.983 259.952 470.972 253.172 482.013 245.021C461.436 214.754 449.792 174.397 449.792 128.977C449.792 59.8957 480.843 21.4795 527.42 21.4795C572.02 21.4795 601.155 56.4362 601.155 116.176C601.155 162.753 583.688 208.16 553.421 244.25C565.821 252.517 580.43 256.844 595.333 256.666L607.362 256.702ZM501.805 125.53C501.805 156.183 508.399 184.124 520.043 206.292C538.666 179.893 549.153 148.854 549.153 116.248C549.153 86.3663 540.607 70.443 526.637 70.443C511.509 70.4189 501.805 87.8851 501.805 125.53Z" fill="#F0A321"/>
<path d="M839.1 236.101V285.004H824.732C796.79 285.004 778.926 274.529 771.561 253.953C756.036 276.072 732.361 289.657 703.649 289.657C648.538 289.657 607.012 245.057 607.012 185.992C607.012 126.927 648.538 82.3274 703.649 82.3274C730.421 82.3274 752.552 93.9716 768.078 112.993V5.56738H818.524V219.418C818.524 229.893 824.346 236.101 835.218 236.101H839.1ZM768.078 186.04C768.078 154.989 744.789 131.315 713.352 131.315C682.301 131.315 659.013 154.989 659.013 186.04C659.013 217.091 682.301 240.766 713.352 240.766C744.789 240.766 768.078 217.091 768.078 186.04Z" fill="#F0A321"/>
</svg>
